<?xml version="1.0" encoding="utf-8"?>

<!DOCTYPE svg PUBLIC "-//W3C//DTD SVG 1.1//EN" "http://www.w3.org/Graphics/SVG/1.1/DTD/svg11.dtd">
<!-- Uploaded to: SVG Repo, www.svgrepo.com, Generator: SVG Repo Mixer Tools -->
<svg height="800px" width="800px" version="1.1" id="_x32_" xmlns="http://www.w3.org/2000/svg" xmlns:xlink="http://www.w3.org/1999/xlink" 
	 viewBox="0 0 512 512"  xml:space="preserve">
<style type="text/css">
	.st0{fill:#000000;}
</style>
<g>
	<path class="st0" d="M474.659,121.941L304.895,60.196v18.563l163.775,59.66c1.892,0.671,3.501,1.616,4.991,2.764
		c0.73,0.536,1.476,1.207,2.071,1.877c4.514,4.783,6.198,11.911,3.844,18.571L362.744,482.528
		c-3.426,9.408-13.87,14.257-23.271,10.824L132.979,418.22c-3.092-1.14-5.721-3.024-7.665-5.445h-19.778
		c3.363,9.818,10.965,18.027,21.461,21.863l206.488,75.19c13.11,4.775,27.099,1.416,36.59-7.531c1.34-1.214,2.547-2.556,3.694-4.038
		c2.22-2.89,4.112-6.123,5.378-9.75l116.831-320.898C502.712,149.115,493.163,128.668,474.659,121.941z"/>
	<path class="st0" d="M397.099,176.446c-2.562,7.061,1.088,14.89,8.134,17.452c3.948,1.438,8.134,0.917,11.502-1.035
		c-2.458,5.482-5.275,10.518-8.612,14.496l10.727,3.903c0-5.184,1.088-10.86,2.726-16.634c1.326,3.658,4.186,6.742,8.134,8.179
		c7.048,2.562,14.884-1.08,17.446-8.142c2.563-7.047-1.087-14.868-8.134-17.438c-0.7-0.254-1.415-0.447-2.115-0.589
		c2.414-1.542,4.365-3.873,5.423-6.786c2.578-7.046-1.072-14.884-8.134-17.446c-7.046-2.57-14.868,1.094-17.43,8.134
		c-1.058,2.92-1.073,5.952-0.209,8.693c-0.641-0.35-1.311-0.656-2.012-0.916C407.498,165.749,399.662,169.399,397.099,176.446z"/>
	<path class="st0" d="M304.88,377.116v-53.41c0.004,0.008,0.011,0.015,0.011,0.015c2.76,2.361,5.992,4.238,9.553,5.586
		c16.417,5.915,34.578-2.562,40.553-18.898c2.562-7.069,2.488-14.399,0.208-20.992c-1.415-4.306-3.769-8.209-6.853-11.501
		c-2.906-3.092-6.465-5.646-10.563-7.397c-0.536-0.268-1.072-0.47-1.683-0.67c-1.609-0.544-3.292-1.013-4.916-1.349
		c1.684-1.08,3.308-2.354,4.783-3.836c2.145-2.019,4.038-4.365,5.512-7.062c0.939-1.475,1.683-3.159,2.279-4.842
		c2.697-7.396,2.504-15.129-0.06-21.922c-3.024-8.075-9.341-14.801-17.893-18.302c-0.059,0-0.133-0.06-0.268-0.06
		c-0.209-0.067-0.477-0.209-0.67-0.275c-0.209-0.067-0.477-0.127-0.67-0.202c-0.075-0.067-0.134-0.067-0.209-0.067
		c-6.39-2.146-13.05-2.078-19.099-0.194c0,0-0.011,0.008-0.014,0.008V35.636c0-19.688-15.956-35.629-35.637-35.636H49.496
		c-19.68,0.008-35.629,15.948-35.632,35.636v341.48c0.004,19.688,15.952,35.629,35.632,35.636h219.747
		C288.924,412.745,304.88,396.804,304.88,377.116z M304.895,219.069v98.127c-0.007,0-0.007-0.008-0.014-0.014v-98.127
		C304.884,219.062,304.891,219.062,304.895,219.069z M31.347,377.116V35.636c0.019-10.019,8.138-18.131,18.15-18.153h219.747
		c10.012,0.022,18.132,8.134,18.146,18.153v341.48c-0.014,10.018-8.134,18.13-18.146,18.146H49.496
		C39.485,395.247,31.366,387.135,31.347,377.116z"/>
	<path class="st0" d="M160.282,136.407c-0.372-0.819-0.648-1.05-0.912-1.05c-0.224,0.015-0.536,0.231-0.912,1.05
		c-5.732,12.612-27.212,31.45-40.519,48.851c-12.205,15.971-16.895,38.154-1.635,51.25c10.213,8.745,27.48,8.015,37.327-1.296
		c-0.868,15.248-3.046,29.87-7.516,42.184h26.512c-4.466-12.313-6.649-26.936-7.509-42.184c9.833,9.311,27.111,10.041,37.32,1.296
		c15.264-13.096,10.571-35.279-1.632-51.25C187.49,167.858,166.018,149.019,160.282,136.407z"/>
	<path class="st0" d="M73.62,46.296l-0.339-0.403l-0.35,0.403c-2.168,4.768-10.28,11.888-15.304,18.466
		c-4.618,6.034-6.392,14.421-0.622,19.359c3.855,3.308,10.384,3.032,14.101-0.484c-0.328,5.758-1.151,11.292-2.838,15.941h10.022
		c-1.694-4.648-2.514-10.183-2.838-15.941c3.72,3.516,10.242,3.791,14.097,0.484c5.766-4.938,3.992-13.326-0.619-19.359
		C83.9,58.184,75.795,51.064,73.62,46.296z"/>
	<path class="st0" d="M245.812,325.189l-0.342-0.395l-0.35,0.395c-2.168,4.774-10.279,11.888-15.308,18.466
		c-4.611,6.034-6.384,14.414-0.618,19.36c3.851,3.3,10.377,3.032,14.102-0.484c-0.328,5.758-1.148,11.292-2.846,15.941h10.027
		c-1.699-4.648-2.51-10.183-2.838-15.941c3.717,3.516,10.239,3.784,14.097,0.484c5.766-4.946,3.993-13.326-0.625-19.36
		C256.089,337.077,247.98,329.963,245.812,325.189z"/>
</g>
</svg>